<svg width="353" height="129" viewBox="0 0 353 129" fill="none" xmlns="http://www.w3.org/2000/svg">
<mask id="mask0_5_11" style="mask-type:luminance" maskUnits="userSpaceOnUse" x="219" y="28" width="97" height="91">
<path d="M219 28H226.75C238.817 28 250.39 32.7937 258.923 41.3266C267.456 49.8595 272.25 61.4326 272.25 73.5C272.25 85.5674 267.456 97.1404 258.923 105.673C250.39 114.206 238.817 119 226.75 119H219V99H226.75C233.513 99 239.999 96.3134 244.781 91.5312C249.563 86.749 252.25 80.263 252.25 73.5C252.25 66.737 249.563 60.251 244.781 55.4688C239.999 50.6866 233.513 48 226.75 48H219V28ZM255.251 28H287.251C292.524 27.9999 297.687 29.5021 302.137 32.3305C306.587 35.1589 310.139 39.1966 312.377 43.9707C314.615 48.7448 315.447 54.0577 314.775 59.2874C314.103 64.5171 311.955 69.447 308.582 73.5C311.955 77.553 314.103 82.4829 314.775 87.7126C315.447 92.9423 314.615 98.2552 312.377 103.029C310.139 107.803 306.587 111.841 302.137 114.67C297.687 117.498 292.524 119 287.251 119H255.251C263.125 114.068 269.584 107.176 273.997 99H287.25C288.268 99 289.276 98.7995 290.216 98.4101C291.156 98.0206 292.01 97.4497 292.73 96.7301C293.45 96.0104 294.021 95.1561 294.41 94.2158C294.8 93.2755 295 92.2677 295 91.25C295 90.2323 294.8 89.2245 294.41 88.2842C294.021 87.3439 293.45 86.4896 292.73 85.7699C292.01 85.0503 291.156 84.4794 290.216 84.0899C289.276 83.7005 288.268 83.5 287.25 83.5H279.5C280.753 76.8922 280.753 70.1078 279.5 63.5H287.25C288.268 63.5 289.276 63.2995 290.216 62.9101C291.156 62.5206 292.01 61.9497 292.73 61.2301C293.45 60.5104 294.021 59.6561 294.41 58.7158C294.8 57.7755 295 56.7677 295 55.75C295 54.7323 294.8 53.7245 294.41 52.7842C294.021 51.8439 293.45 50.9896 292.73 50.2699C292.01 49.5503 291.156 48.9794 290.216 48.5899C289.276 48.2005 288.268 48 287.25 48H273.997C269.584 39.8235 263.125 32.9323 255.251 28Z" fill="white"/>
</mask>
<g mask="url(#mask0_5_11)">
<path d="M91 -74V226H391L91 -74Z" fill="url(#paint0_linear_5_11)"/>
<path d="M147 -74H447V226L147 -74Z" fill="url(#paint1_linear_5_11)"/>
<path d="M119 -74L419 226" stroke="url(#paint2_linear_5_11)" stroke-width="40"/>
</g>
<path d="M9.088 104.432L9.216 94.32L9.344 75.504C9.42933 72.7733 9.472 69.9573 9.472 67.056C9.472 64.1547 9.472 61.168 9.472 58.096C9.472 55.024 9.472 52.2933 9.472 49.904C9.472 47.5147 9.55733 44.8267 9.728 41.84V41.328C9.81333 40.4747 9.856 39.6213 9.856 38.768C9.94133 37.8293 9.984 36.8907 9.984 35.952C10.0693 34.416 10.5387 32.752 11.392 30.96C11.9893 29.7653 12.8853 28.7413 14.08 27.888C15.4453 27.2053 16.768 26.864 18.048 26.864C18.7307 26.864 19.328 26.9067 19.84 26.992C20.4373 26.992 20.992 27.0347 21.504 27.12C22.6133 27.2907 23.5947 27.8027 24.448 28.656C24.96 29.0827 25.4293 29.7653 25.856 30.704C26.0267 31.216 26.1547 31.728 26.24 32.24C26.4107 32.6667 26.5387 33.136 26.624 33.648C26.7093 34.2453 26.752 34.8 26.752 35.312C26.8373 35.824 26.88 36.336 26.88 36.848C26.88 37.4453 26.8373 38 26.752 38.512C26.752 38.9387 26.752 39.408 26.752 39.92V42.096L25.984 108.528V109.808C25.984 110.064 25.9413 110.405 25.856 110.832C25.856 111.173 25.8133 111.6 25.728 112.112C25.5573 112.539 25.3867 113.008 25.216 113.52C25.1307 113.947 25.0027 114.416 24.832 114.928C24.576 115.355 24.2773 115.781 23.936 116.208C23.68 116.549 23.3387 116.891 22.912 117.232C22.2293 117.915 21.12 118.384 19.584 118.64C17.28 119.152 15.104 118.939 13.056 118C12.032 117.317 11.3067 116.464 10.88 115.44C10.624 115.184 10.496 114.928 10.496 114.672C10.4107 114.501 10.3253 114.373 10.24 114.288C10.1547 114.203 10.0693 114.075 9.984 113.904C9.81333 113.477 9.68533 113.051 9.6 112.624C9.51467 112.112 9.472 111.6 9.472 111.088C9.38667 110.661 9.30133 110.235 9.216 109.808C9.216 109.381 9.17333 108.955 9.088 108.528C9.00267 107.845 9.00267 107.12 9.088 106.352V104.432ZM110.627 108.272C110.542 109.723 110.328 111.259 109.987 112.88C109.731 114.501 108.92 115.824 107.555 116.848C106.531 117.701 105.379 118.213 104.099 118.384C102.819 118.555 101.539 118.469 100.259 118.128C99.0643 117.872 97.9123 117.445 96.803 116.848C95.6937 116.165 94.7977 115.355 94.115 114.416C91.2137 110.832 88.5257 107.163 86.051 103.408C83.6617 99.568 81.2297 95.728 78.755 91.888L68.003 75.632C66.5523 73.328 65.0163 70.768 63.395 67.952C61.7737 65.0507 60.1097 62.3627 58.403 59.888L58.019 108.784V109.936C58.019 111.301 57.763 112.667 57.251 114.032C56.8243 115.312 56.0563 116.421 54.947 117.36C54.0937 118.043 52.9843 118.512 51.619 118.768C49.4857 119.195 47.6937 119.067 46.243 118.384C44.8777 117.701 43.7683 116.763 42.915 115.568C42.147 114.373 41.5923 113.008 41.251 111.472C40.995 109.851 40.9523 108.272 41.123 106.736V104.56L41.379 94.576L41.507 76.016C41.5923 73.2853 41.635 70.512 41.635 67.696C41.635 64.7947 41.635 61.8507 41.635 58.864C41.5497 55.1947 41.5497 51.312 41.635 47.216C41.8057 43.12 41.9763 39.28 42.147 35.696C42.3177 33.7333 42.787 32.0693 43.555 30.704C43.8963 29.5093 44.7923 28.4853 46.243 27.632C47.1817 27.0347 48.3763 26.6507 49.827 26.48C51.363 26.3093 52.6857 26.352 53.795 26.608C54.2217 26.7787 54.6483 26.992 55.075 27.248C55.5017 27.4187 55.9283 27.632 56.355 27.888C56.7817 28.2293 57.1657 28.5707 57.507 28.912C57.9337 29.2533 58.3177 29.6373 58.659 30.064C59.0857 30.4907 59.4697 30.96 59.811 31.472C60.1523 31.8987 60.4937 32.3253 60.835 32.752C61.091 33.264 61.347 33.7333 61.603 34.16C61.859 34.5867 62.1577 35.0133 62.499 35.44L63.907 37.488L93.475 84.08V75.632C93.475 72.9013 93.4323 70.128 93.347 67.312C93.347 64.4107 93.3043 61.424 93.219 58.352C93.219 54.768 93.219 50.928 93.219 46.832C93.3043 42.736 93.4323 38.896 93.603 35.312C93.603 33.8613 94.0297 32.1973 94.883 30.32C95.3097 29.2107 96.035 28.3147 97.059 27.632C98.083 26.9493 99.235 26.48 100.515 26.224C101.795 25.968 103.075 25.968 104.355 26.224C105.635 26.48 106.744 26.992 107.683 27.76C107.939 28.016 108.195 28.3147 108.451 28.656C108.707 28.9973 108.92 29.3813 109.091 29.808C109.518 30.9173 109.774 31.8987 109.859 32.752C110.115 33.9467 110.243 35.0133 110.243 35.952C110.243 46.6187 110.243 57.4987 110.243 68.592C110.328 79.6853 110.414 90.5653 110.499 101.232C110.499 102.427 110.542 103.621 110.627 104.816C110.712 105.925 110.712 107.077 110.627 108.272ZM143.651 30.448C149.368 28.3147 154.531 27.376 159.139 27.632C163.832 27.888 168.014 29.0827 171.683 31.216C175.352 33.264 178.467 36.0373 181.027 39.536C183.672 43.0347 185.806 46.96 187.427 51.312C188.707 54.5547 189.688 57.968 190.371 61.552C191.054 65.136 191.438 68.72 191.523 72.304C191.694 75.8027 191.566 79.2587 191.139 82.672C190.798 86.0853 190.2 89.2427 189.347 92.144C188.835 94.1067 188.238 95.8987 187.555 97.52C186.872 99.1413 186.062 100.763 185.123 102.384C182.99 106.053 180.216 109.04 176.803 111.344C173.475 113.648 169.806 115.269 165.795 116.208C163.064 116.891 160.248 117.232 157.347 117.232C154.446 117.147 151.587 116.763 148.771 116.08C145.955 115.312 143.224 114.245 140.579 112.88C138.019 111.429 135.672 109.637 133.539 107.504C130.894 104.944 128.718 102 127.011 98.672C125.304 95.2587 123.982 91.7173 123.043 88.048C122.104 84.2933 121.507 80.5387 121.251 76.784C120.995 73.0293 120.995 69.4453 121.251 66.032C121.507 62.8747 122.104 59.504 123.043 55.92C124.067 52.336 125.518 48.88 127.395 45.552C129.272 42.224 131.534 39.2373 134.179 36.592C136.91 33.8613 140.067 31.8133 143.651 30.448ZM173.603 85.232C174.627 81.2213 175.054 76.6987 174.883 71.664C174.712 66.6293 173.902 61.8933 172.451 57.456C171.512 54.7253 170.318 52.336 168.867 50.288C167.502 48.1547 165.838 46.5333 163.875 45.424C161.998 44.3147 159.779 43.76 157.219 43.76C154.659 43.76 151.8 44.528 148.643 46.064C146.766 47.0027 145.144 48.2827 143.779 49.904C142.499 51.5253 141.432 53.36 140.579 55.408C139.811 57.456 139.171 59.5893 138.659 61.808C138.232 64.0267 137.976 66.16 137.891 68.208C137.72 70.4267 137.678 72.7733 137.763 75.248C137.848 77.6373 138.104 80.0693 138.531 82.544C139.043 84.9333 139.726 87.2373 140.579 89.456C141.432 91.5893 142.584 93.5093 144.035 95.216C146.254 97.776 148.814 99.568 151.715 100.592C154.702 101.531 157.646 101.659 160.547 100.976C165.24 99.952 168.824 96.8373 171.299 91.632C172.323 89.7547 173.091 87.6213 173.603 85.232Z" fill="url(#paint3_linear_5_11)"/>
<defs>
<linearGradient id="paint0_linear_5_11" x1="226" y1="92" x2="269" y2="135" gradientUnits="userSpaceOnUse">
<stop stop-color="#F9A03C"/>
<stop offset="1" stop-color="#F7974E"/>
</linearGradient>
<linearGradient id="paint1_linear_5_11" x1="264" y1="18" x2="327" y2="81" gradientUnits="userSpaceOnUse">
<stop stop-color="#B84E51"/>
<stop offset="1" stop-color="#F68E48"/>
</linearGradient>
<linearGradient id="paint2_linear_5_11" x1="221" y1="26" x2="306" y2="112" gradientUnits="userSpaceOnUse">
<stop stop-color="#F26D58"/>
<stop offset="1" stop-color="#F9A03C"/>
</linearGradient>
<linearGradient id="paint3_linear_5_11" x1="176.5" y1="6.23725e-06" x2="337.412" y2="339.257" gradientUnits="userSpaceOnUse">
<stop stop-color="#F37454" stop-opacity="0.87"/>
<stop offset="0.491817" stop-color="white" stop-opacity="0.27"/>
<stop offset="1" stop-color="#F89C43" stop-opacity="0"/>
</linearGradient>
</defs>
</svg>
